<svg viewBox="0 0 120 32" fill="currentColor" xmlns="http://www.w3.org/2000/svg">
  <!-- J -->
  <path d="M8 4h4v16c0 4-2 6-6 6s-6-2-6-6h4c0 1 0.5 2 2 2s2-1 2-2V4z"/>
  
  <!-- O -->
  <circle cx="24" cy="16" r="8" fill="none" stroke="currentColor" stroke-width="4"/>
  
  <!-- V -->
  <path d="M40 4l4 16 4-16h4l-6 20h-4l-6-20h4z"/>
  
  <!-- I -->
  <rect x="60" y="4" width="4" height="20"/>
  
  <!-- E -->
  <path d="M72 4h12v4h-8v4h6v4h-6v4h8v4H72V4z"/>
  
  <!-- Music note icon -->
  <g transform="translate(94, 4)">
    <circle cx="4" cy="18" r="3" fill="currentColor"/>
    <circle cx="12" cy="15" r="3" fill="currentColor"/>
    <rect x="7" y="8" width="2" height="12" fill="currentColor"/>
    <rect x="15" y="5" width="2" height="12" fill="currentColor"/>
    <path d="M7 8h10v3H7z" fill="currentColor"/>
  </g>
</svg>