<?xml version="1.0" encoding="UTF-8"?>
<svg width="240" height="240" viewBox="0 0 240 240" fill="none" xmlns="http://www.w3.org/2000/svg">
  <!-- Background circle -->
  <circle cx="120" cy="120" r="100" fill="#F0F4FF" fill-opacity="0.5"/>
  
  <!-- Venmo-inspired wallet illustration -->
  <rect x="70" y="80" width="100" height="80" rx="8" fill="#3D95CE" stroke="#2A78B0" stroke-width="2"/>
  <rect x="75" y="85" width="90" height="70" rx="4" fill="#62B0E8" stroke="#3D95CE" stroke-width="2"/>
  
  <!-- Venmo logo hint -->
  <path d="M95 105H145" stroke="white" stroke-width="4" stroke-linecap="round"/>
  <path d="M105 120H135" stroke="white" stroke-width="4" stroke-linecap="round"/>
  <path d="M115 135H125" stroke="white" stroke-width="4" stroke-linecap="round"/>
  
  <!-- Disconnected indicator -->
  <circle cx="160" cy="160" r="30" fill="#FFE8E8"/>
  <path d="M150 150L170 170M170 150L150 170" stroke="#FF5757" stroke-width="4" stroke-linecap="round"/>
  
  <!-- Connection line (broken) -->
  <path d="M120 80C120 60 140 50 160 50C180 50 200 60 200 80" stroke="#D1D5DB" stroke-width="2" stroke-dasharray="4 4"/>
  <path d="M200 80L200 130" stroke="#D1D5DB" stroke-width="2" stroke-dasharray="4 4"/>
  <path d="M200 130C200 145 185 160 170 160" stroke="#D1D5DB" stroke-width="2" stroke-dasharray="4 4"/>
  
  <!-- Music note to represent artist -->
  <circle cx="60" cy="60" r="20" fill="#8B5CF6" fill-opacity="0.2"/>
  <path d="M67 50V65C67 68.3137 64.3137 71 61 71C57.6863 71 55 68.3137 55 65C55 61.6863 57.6863 59 61 59C62 59 63 59.2 63.8 59.6V54L57 56V50L67 47V50Z" fill="#8B5CF6"/>
</svg>

