<?xml version="1.0" encoding="UTF-8"?>
<svg width="240" height="240" viewBox="0 0 240 240" fill="none" xmlns="http://www.w3.org/2000/svg">
  <!-- Background circle -->
  <circle cx="120" cy="120" r="100" fill="#F0F9FF" fill-opacity="0.5"/>
  
  <!-- Chart background -->
  <rect x="60" y="70" width="120" height="100" rx="8" fill="white" stroke="#E5E7EB" stroke-width="2"/>
  
  <!-- Chart grid lines -->
  <line x1="60" y1="95" x2="180" y2="95" stroke="#F3F4F6" stroke-width="1"/>
  <line x1="60" y1="120" x2="180" y2="120" stroke="#F3F4F6" stroke-width="1"/>
  <line x1="60" y1="145" x2="180" y2="145" stroke="#F3F4F6" stroke-width="1"/>
  
  <!-- Chart bars (faded/pending) -->
  <rect x="80" y="130" width="15" height="40" rx="2" fill="#E5E7EB"/>
  <rect x="110" y="110" width="15" height="60" rx="2" fill="#E5E7EB"/>
  <rect x="140" y="100" width="15" height="70" rx="2" fill="#E5E7EB"/>
  
  <!-- Pending indicator -->
  <circle cx="170" cy="70" r="20" fill="#DBEAFE"/>
  <path d="M170 60V70L177 77" stroke="#3B82F6" stroke-width="3" stroke-linecap="round" stroke-linejoin="round"/>
  
  <!-- Dollar sign to represent tips -->
  <circle cx="60" cy="60" r="20" fill="#10B981" fill-opacity="0.2"/>
  <path d="M60 50V70M56 54H64M56 66H64" stroke="#10B981" stroke-width="3" stroke-linecap="round"/>
  
  <!-- Dotted connection line -->
  <path d="M80 60C90 60 100 50 120 50C140 50 150 60 160 60" stroke="#D1D5DB" stroke-width="2" stroke-dasharray="4 4"/>
  
  <!-- Coming soon text hint -->
  <rect x="90" y="170" width="60" height="10" rx="5" fill="#E5E7EB"/>
  <rect x="100" y="185" width="40" height="5" rx="2.5" fill="#E5E7EB"/>
</svg>

